<svg version="1.1" xmlns="http://www.w3.org/2000/svg" viewBox="0 0 1513.0737625817117 1007.8040865774071" width="1513.0737625817117" height="1007.8040865774071">
  <!-- svg-source:excalidraw -->
  
  <defs>
    <style class="style-fonts">
      @font-face {
        font-family: "Virgil";
        src: url("https://excalidraw.com/Virgil.woff2");
      }
      @font-face {
        font-family: "Cascadia";
        src: url("https://excalidraw.com/Cascadia.woff2");
      }
      @font-face {
        font-family: "Assistant";
        src: url("https://excalidraw.com/Assistant-Regular.woff2");
      }
    </style>
    
  </defs>
  <rect x="0" y="0" width="1513.0737625817117" height="1007.8040865774071" fill="#fdf8f6"></rect><g stroke-linecap="round" transform="translate(116.3984576035291 23.09765625) rotate(0 76.490234375 25)"><path d="M12.5 0 C48.27 0.37, 85.34 1.39, 140.48 0 M12.5 0 C53.96 -1.39, 98.3 -1.06, 140.48 0 M140.48 0 C149.9 -0.34, 154.53 6.03, 152.98 12.5 M140.48 0 C150.15 -1.88, 153.26 2.98, 152.98 12.5 M152.98 12.5 C151.1 22.72, 154.49 32.3, 152.98 37.5 M152.98 12.5 C154.11 18.57, 152.86 23.41, 152.98 37.5 M152.98 37.5 C152.92 46.93, 149.05 48.83, 140.48 50 M152.98 37.5 C154.95 47.18, 147.57 48.41, 140.48 50 M140.48 50 C92.85 48.95, 42.88 50.22, 12.5 50 M140.48 50 C101 49.7, 63.29 48.39, 12.5 50 M12.5 50 C3.27 49.81, 1.56 47.24, 0 37.5 M12.5 50 C3.63 48.37, -0.7 48.06, 0 37.5 M0 37.5 C1.26 27.78, 0.62 20.81, 0 12.5 M0 37.5 C-0.81 28.26, 0.76 20.7, 0 12.5 M0 12.5 C-0.2 2.25, 2.41 -1.97, 12.5 0 M0 12.5 C-2.22 5.28, 5.33 -1.1, 12.5 0" stroke="#1e1e1e" stroke-width="2" fill="none"></path></g><g transform="translate(126.1972857285291 29.697656249999994) rotate(0 66.69140625 18.39999999999999)"><text x="66.69140625" y="0" font-family="Helvetica, Segoe UI Emoji" font-size="16px" fill="#1e1e1e" text-anchor="middle" style="white-space: pre;" direction="ltr" dominant-baseline="text-before-edge">USDC contract on </text><text x="66.69140625" y="18.4" font-family="Helvetica, Segoe UI Emoji" font-size="16px" fill="#1e1e1e" text-anchor="middle" style="white-space: pre;" direction="ltr" dominant-baseline="text-before-edge">Optimism</text></g><g stroke-linecap="round" transform="translate(349.1992388535291 19.28515625) rotate(0 76.490234375 25)"><path d="M12.5 0 C58.38 0.85, 104.13 1.8, 140.48 0 M12.5 0 C50.57 -1.6, 87.73 -1, 140.48 0 M140.48 0 C148.92 -1.27, 152.1 4.59, 152.98 12.5 M140.48 0 C148.7 0.49, 154.42 2.83, 152.98 12.5 M152.98 12.5 C155.19 21.17, 152.98 30.46, 152.98 37.5 M152.98 12.5 C153.14 20.78, 153.9 28.73, 152.98 37.5 M152.98 37.5 C153.43 44.38, 150.28 48.15, 140.48 50 M152.98 37.5 C150.75 46.12, 150.94 52.02, 140.48 50 M140.48 50 C93.69 48.21, 43.72 50.38, 12.5 50 M140.48 50 C93.06 48.89, 47.92 50.02, 12.5 50 M12.5 50 C2.38 49.6, -1.09 44.06, 0 37.5 M12.5 50 C3.04 47.78, -1.86 46.26, 0 37.5 M0 37.5 C0.92 33.8, -0.61 25.3, 0 12.5 M0 37.5 C-0.77 31.56, -0.74 25.51, 0 12.5 M0 12.5 C1.99 4.44, 5.46 0.63, 12.5 0 M0 12.5 C1.92 4.88, 4.91 -0.69, 12.5 0" stroke="#1e1e1e" stroke-width="2" fill="none"></path></g><g transform="translate(365.2168169785291 25.885156249999994) rotate(0 60.47265625 18.39999999999999)"><text x="60.47265625" y="0" font-family="Helvetica, Segoe UI Emoji" font-size="16px" fill="#1e1e1e" text-anchor="middle" style="white-space: pre;" direction="ltr" dominant-baseline="text-before-edge">ARB contract on </text><text x="60.47265625" y="18.4" font-family="Helvetica, Segoe UI Emoji" font-size="16px" fill="#1e1e1e" text-anchor="middle" style="white-space: pre;" direction="ltr" dominant-baseline="text-before-edge">Arbitrum</text></g><g stroke-linecap="round" transform="translate(644.6250201035291 10) rotate(0 180.525390625 29.326171875)"><path d="M14.66 0 C91.81 1.34, 168.73 0.54, 346.39 0 M14.66 0 C105.51 0.72, 195.09 0.8, 346.39 0 M346.39 0 C357.25 -1.75, 360.8 3.45, 361.05 14.66 M346.39 0 C356.18 1.21, 361.63 6.37, 361.05 14.66 M361.05 14.66 C360.03 22.28, 359.09 33.37, 361.05 43.99 M361.05 14.66 C361.35 23.56, 361.24 32.12, 361.05 43.99 M361.05 43.99 C362.48 52.2, 357.96 59.88, 346.39 58.65 M361.05 43.99 C361.16 54.89, 355.11 58.32, 346.39 58.65 M346.39 58.65 C274.81 60.88, 199.99 60.43, 14.66 58.65 M346.39 58.65 C239.77 59.91, 132.34 59.31, 14.66 58.65 M14.66 58.65 C6.01 56.8, 0.79 53.42, 0 43.99 M14.66 58.65 C3.95 58.6, 0.69 55.08, 0 43.99 M0 43.99 C1.41 36.24, -0.31 25.54, 0 14.66 M0 43.99 C0.3 35.17, 0.03 27.62, 0 14.66 M0 14.66 C-0.03 3.78, 3.5 1.11, 14.66 0 M0 14.66 C-1.12 2.86, 3.19 -0.04, 14.66 0" stroke="#1e1e1e" stroke-width="2" fill="none"></path></g><g transform="translate(790.0371294785291 30.12617187500001) rotate(0 35.11328125 9.200000000000003)"><text x="35.11328125" y="0" font-family="Helvetica, Segoe UI Emoji" font-size="16px" fill="#1e1e1e" text-anchor="middle" style="white-space: pre;" direction="ltr" dominant-baseline="text-before-edge">My server</text></g><g stroke-linecap="round"><g transform="translate(194.6679888535291 72.8671875) rotate(0 0.83984375 263.076171875)"><path d="M-0.03 -0.1 C0.27 87.73, 1.86 439.33, 2.19 526.97 M-1.51 -1.19 C-1.35 86.29, 1.05 437.27, 1.52 525.28" stroke="#1e1e1e" stroke-width="2" fill="none"></path></g></g><mask></mask><g stroke-linecap="round"><g transform="translate(426.9726763535291 69.921875) rotate(0 0.83984375 263.076171875)"><path d="M-0.23 -1.03 C0.09 86.59, 2.3 438.97, 2.76 526.63 M-1.81 1.05 C-1.62 88.23, 1.71 437.32, 2.38 524.76" stroke="#1e1e1e" stroke-width="2" fill="none"></path></g></g><mask></mask><g stroke-linecap="round"><g transform="translate(830.3750201035291 70.546875) rotate(0 3.7572871417132774 457.6088495482495)"><path d="M-0.37 -0.69 C1.05 152.02, 6.69 763.22, 8.11 915.69 M1.64 1.56 C2.98 153.96, 6.46 761.6, 7.48 913.81" stroke="#1e1e1e" stroke-width="2" fill="none"></path></g></g><mask></mask><g stroke-linecap="round"><g transform="translate(1157.648457603529 69.875) rotate(0 3.8125 263.427734375)"><path d="M-0.57 0.64 C0.8 88.46, 5.98 440.08, 7.39 527.83 M1.34 -0.07 C2.59 87.35, 5.32 438.11, 6.32 526.22" stroke="#1e1e1e" stroke-width="2" fill="none"></path></g></g><mask></mask><g stroke-linecap="round"><g transform="translate(1391.3539710605835 67.34765625) rotate(0 4.338375971627897 449.15401907633145)"><path d="M0.6 0.27 C2.06 149.94, 7.42 749.36, 8.88 898.93 M-0.55 -0.64 C0.77 148.6, 6.46 747.24, 8.04 897.13" stroke="#1e1e1e" stroke-width="2" fill="none"></path></g></g><mask></mask><g stroke-linecap="round" transform="translate(1053.082051353529 10.015625) rotate(0 101.1953125 30.33984375)"><path d="M15.17 0 C78.51 -1.34, 140.45 -0.22, 187.22 0 M15.17 0 C83.41 0.2, 151.14 -0.8, 187.22 0 M187.22 0 C197.6 0.42, 203.06 5.01, 202.39 15.17 M187.22 0 C195.18 0.3, 200.23 6.37, 202.39 15.17 M202.39 15.17 C202.08 23.95, 201.64 33.04, 202.39 45.51 M202.39 15.17 C202.97 23.97, 202.21 31.25, 202.39 45.51 M202.39 45.51 C202.71 55.91, 196.04 62.17, 187.22 60.68 M202.39 45.51 C201.12 57.3, 199.44 60.01, 187.22 60.68 M187.22 60.68 C140.72 57.27, 93.31 59.14, 15.17 60.68 M187.22 60.68 C141.27 60.7, 94.14 60.65, 15.17 60.68 M15.17 60.68 C4.75 61.03, 0.95 54.76, 0 45.51 M15.17 60.68 C3.7 62.46, -0.81 57.57, 0 45.51 M0 45.51 C0.54 31.56, -1.17 20.52, 0 15.17 M0 45.51 C0.64 39.95, -0.6 33.17, 0 15.17 M0 15.17 C0.1 6.83, 4.95 0.91, 15.17 0 M0 15.17 C0.42 4.2, 5.21 -0.89, 15.17 0" stroke="#1e1e1e" stroke-width="2" fill="none"></path></g><g transform="translate(1116.476582603529 31.15546875000001) rotate(0 37.80078125 9.200000000000003)"><text x="37.80078125" y="0" font-family="Helvetica, Segoe UI Emoji" font-size="16px" fill="#1e1e1e" text-anchor="middle" style="white-space: pre;" direction="ltr" dominant-baseline="text-before-edge">Coingecko</text></g><g mask="url(#mask-DgCtStQs6FKgJlvrVjjXj)" stroke-linecap="round"><g transform="translate(832.5390826035291 113.16796875) rotate(0 -320.33984375 -0.197265625)"><path d="M-0.66 -0.15 C-107.24 -0.37, -533.28 -1.33, -639.85 -1.3" stroke="#1e1e1e" stroke-width="2.5" fill="none" stroke-dasharray="8 10"></path></g><g transform="translate(832.5390826035291 113.16796875) rotate(0 -320.33984375 -0.197265625)"><path d="M-616.35 -9.82 C-622.92 -6.27, -630.5 -4.37, -639.85 -1.3" stroke="#1e1e1e" stroke-width="2.5" fill="none"></path></g><g transform="translate(832.5390826035291 113.16796875) rotate(0 -320.33984375 -0.197265625)"><path d="M-616.37 7.28 C-622.95 6.22, -630.52 3.52, -639.85 -1.3" stroke="#1e1e1e" stroke-width="2.5" fill="none"></path></g></g><mask id="mask-DgCtStQs6FKgJlvrVjjXj"><rect x="0" y="0" fill="#fff" width="1573.218770103529" height="213.5625"></rect><rect x="486.8515826035291" y="103.77070312500001" fill="#000" width="50.6953125" height="18.4" opacity="1"></rect></mask><g transform="translate(486.8515826035291 103.77070312500001) rotate(0 25.433361412212264 8.673411763227875)"><text x="25.34765625" y="0" font-family="Helvetica, Segoe UI Emoji" font-size="16px" fill="#1e1e1e" text-anchor="middle" style="white-space: pre;" direction="ltr" dominant-baseline="text-before-edge">Listens</text></g><g stroke-linecap="round"><g transform="translate(10.781270103529096 210.18359375) rotate(0 88.958984375 -0.41015625)"><path d="M-0.78 0.91 C17.82 0.84, 82.29 -1.2, 112.13 -1.28 C141.98 -1.36, 167.17 0.12, 178.29 0.42 M1.01 0.34 C19.51 0.51, 82.36 0.3, 111.81 0.01 C141.26 -0.27, 166.43 -1.12, 177.72 -1.35" stroke="#1e1e1e" stroke-width="2" fill="none"></path></g><g transform="translate(10.781270103529096 210.18359375) rotate(0 88.958984375 -0.41015625)"><path d="M154.46 7.79 C164.03 6.8, 169.73 2.29, 177.72 -1.35 M154.46 7.79 C164.31 4.63, 172.08 -0.56, 177.72 -1.35" stroke="#1e1e1e" stroke-width="2" fill="none"></path></g><g transform="translate(10.781270103529096 210.18359375) rotate(0 88.958984375 -0.41015625)"><path d="M154.02 -9.3 C163.62 -4.42, 169.47 -3.07, 177.72 -1.35 M154.02 -9.3 C164.17 -5.81, 172.11 -4.34, 177.72 -1.35" stroke="#1e1e1e" stroke-width="2" fill="none"></path></g></g><mask></mask><g transform="translate(46.152363853529096 152.45703125) rotate(0 38.24609375 18.400000000000006)"><text x="0" y="0" font-family="Helvetica, Segoe UI Emoji" font-size="16px" fill="#1e1e1e" text-anchor="start" style="white-space: pre;" direction="ltr" dominant-baseline="text-before-edge">Deposit on</text><text x="0" y="18.4" font-family="Helvetica, Segoe UI Emoji" font-size="16px" fill="#1e1e1e" text-anchor="start" style="white-space: pre;" direction="ltr" dominant-baseline="text-before-edge">address A</text></g><g mask="url(#mask-0QLOoPEkCzrd6LLOusqoq)" stroke-linecap="round"><g transform="translate(195.6562701035291 208.15234375) rotate(0 316.70703125 -2.2421875)"><path d="M-1.11 0.88 C104.59 0.38, 528.74 -2.86, 634.4 -3.63 M0.51 0.29 C106.13 -0.47, 528.75 -4.31, 633.98 -5.3" stroke="#1e1e1e" stroke-width="2" fill="none"></path></g><g transform="translate(195.6562701035291 208.15234375) rotate(0 316.70703125 -2.2421875)"><path d="M610.56 3.46 C619.46 2.56, 626.82 -2.73, 633.98 -5.3 M610.56 3.46 C618.75 0.63, 627.95 -3.44, 633.98 -5.3" stroke="#1e1e1e" stroke-width="2" fill="none"></path></g><g transform="translate(195.6562701035291 208.15234375) rotate(0 316.70703125 -2.2421875)"><path d="M610.41 -13.64 C619.26 -9.14, 626.67 -9.04, 633.98 -5.3 M610.41 -13.64 C618.48 -10.28, 627.75 -8.17, 633.98 -5.3" stroke="#1e1e1e" stroke-width="2" fill="none"></path></g></g><mask id="mask-0QLOoPEkCzrd6LLOusqoq"><rect x="0" y="0" fill="#fff" width="929.0703326035291" height="312.63671875"></rect><rect x="457.6758013535291" y="187.51015625000002" fill="#000" width="109.375" height="36.8" opacity="1"></rect></mask><g transform="translate(457.6758013535291 187.51015625000002) rotate(0 54.62860056646173 18.428531629396588)"><text x="54.6875" y="0" font-family="Helvetica, Segoe UI Emoji" font-size="16px" fill="#1e1e1e" text-anchor="middle" style="white-space: pre;" direction="ltr" dominant-baseline="text-before-edge">from, amount &amp;</text><text x="54.6875" y="18.4" font-family="Helvetica, Segoe UI Emoji" font-size="16px" fill="#1e1e1e" text-anchor="middle" style="white-space: pre;" direction="ltr" dominant-baseline="text-before-edge">txn hash </text></g><g mask="url(#mask-bA4lAuDcSjAm0fcsnca0H)" stroke-linecap="round"><g transform="translate(834.2304888535291 202.34375) rotate(0 161.671875 -2.05859375)"><path d="M0.44 1.17 C54.46 0.83, 270.22 -2.17, 323.95 -2.97 M-0.78 0.74 C53.14 0.17, 269.56 -3.42, 323.33 -4.49" stroke="#1e1e1e" stroke-width="2" fill="none"></path></g><g transform="translate(834.2304888535291 202.34375) rotate(0 161.671875 -2.05859375)"><path d="M299.99 4.48 C308.72 2.83, 315.4 -1.6, 323.33 -4.49 M299.99 4.48 C307.46 2, 315.82 -1.31, 323.33 -4.49" stroke="#1e1e1e" stroke-width="2" fill="none"></path></g><g transform="translate(834.2304888535291 202.34375) rotate(0 161.671875 -2.05859375)"><path d="M299.69 -12.62 C308.37 -9.35, 315.14 -8.87, 323.33 -4.49 M299.69 -12.62 C307.33 -9.24, 315.8 -6.67, 323.33 -4.49" stroke="#1e1e1e" stroke-width="2" fill="none"></path></g></g><mask id="mask-bA4lAuDcSjAm0fcsnca0H"><rect x="0" y="0" fill="#fff" width="1257.574238853529" height="306.4609375"></rect><rect x="946.5468951035291" y="191.08515624999995" fill="#000" width="98.7109375" height="18.4" opacity="1"></rect></mask><g transform="translate(946.5468951035291 191.08515625) rotate(0 49.269547242568706 9.599489928884424)"><text x="49.35546875" y="0" font-family="Helvetica, Segoe UI Emoji" font-size="16px" fill="#1e1e1e" text-anchor="middle" style="white-space: pre;" direction="ltr" dominant-baseline="text-before-edge">price of ARB?</text></g><g mask="url(#mask-sHquat7OXsDroATvMAI4d)" stroke-linecap="round"><g transform="translate(1156.121113853529 271.60546875) rotate(0 -162.125 2.783203125)"><path d="M0.01 0.65 C-54.29 1.69, -271.18 5.25, -325.3 6.2 M-1.45 -0.06 C-55.42 0.64, -269.09 3.66, -323.13 4.41" stroke="#1e1e1e" stroke-width="2" fill="none"></path></g><g transform="translate(1156.121113853529 271.60546875) rotate(0 -162.125 2.783203125)"><path d="M-299.76 -4.47 C-306.6 -3.21, -314.54 0.81, -323.13 4.41 M-299.76 -4.47 C-307.73 -1.8, -317.68 1.84, -323.13 4.41" stroke="#1e1e1e" stroke-width="2" fill="none"></path></g><g transform="translate(1156.121113853529 271.60546875) rotate(0 -162.125 2.783203125)"><path d="M-299.52 12.63 C-306.44 8.1, -314.46 6.33, -323.13 4.41 M-299.52 12.63 C-307.58 9.03, -317.62 6.41, -323.13 4.41" stroke="#1e1e1e" stroke-width="2" fill="none"></path></g></g><mask id="mask-sHquat7OXsDroATvMAI4d"><rect x="0" y="0" fill="#fff" width="1580.371113853529" height="377.171875"></rect><rect x="949.0898638535291" y="265.18867187499995" fill="#000" width="89.8125" height="18.4" opacity="1"></rect></mask><g transform="translate(949.0898638535291 265.188671875) rotate(0 44.38547853715727 9.487955024791859)"><text x="44.90625" y="0" font-family="Helvetica, Segoe UI Emoji" font-size="16px" fill="#1e1e1e" text-anchor="middle" style="white-space: pre;" direction="ltr" dominant-baseline="text-before-edge">price of ARB</text></g><g stroke-linecap="round"><g transform="translate(830.6914263535291 283.5078125) rotate(0 -24.8125 32.513671875)"><path d="M-0.73 -1.19 C-0.56 -1.27, 8.29 -2.44, 0.1 -0.03 C-8.1 2.38, -41.66 4.46, -49.89 13.26 C-58.12 22.07, -57.93 44.2, -49.3 52.81 C-40.68 61.41, -6.48 63.05, 1.86 64.89 M1.08 0.8 C1.21 0.88, 7.95 -0.72, -0.68 1.49 C-9.31 3.7, -42.13 5.35, -50.71 14.08 C-59.28 22.81, -60.75 45.37, -52.14 53.89 C-43.53 62.41, -8.09 63.22, 0.95 65.22" stroke="#1e1e1e" stroke-width="2" fill="none"></path></g><g transform="translate(830.6914263535291 283.5078125) rotate(0 -24.8125 32.513671875)"><path d="M-23.41 70.81 C-20.06 70.28, -12.78 68.34, 0.95 65.22 M-23.41 70.81 C-17.19 69.47, -12.76 67.36, 0.95 65.22" stroke="#1e1e1e" stroke-width="2" fill="none"></path></g><g transform="translate(830.6914263535291 283.5078125) rotate(0 -24.8125 32.513671875)"><path d="M-21.31 53.84 C-18.35 57.03, -11.53 58.82, 0.95 65.22 M-21.31 53.84 C-15.4 56.25, -11.43 57.88, 0.95 65.22" stroke="#1e1e1e" stroke-width="2" fill="none"></path></g></g><mask></mask><g transform="translate(695.4531451035291 285.359375) rotate(0 35.12109375 27.600000000000023)"><text x="0" y="0" font-family="Helvetica, Segoe UI Emoji" font-size="16px" fill="#1e1e1e" text-anchor="start" style="white-space: pre;" direction="ltr" dominant-baseline="text-before-edge">USDC to</text><text x="0" y="18.4" font-family="Helvetica, Segoe UI Emoji" font-size="16px" fill="#1e1e1e" text-anchor="start" style="white-space: pre;" direction="ltr" dominant-baseline="text-before-edge">ARB with </text><text x="0" y="36.8" font-family="Helvetica, Segoe UI Emoji" font-size="16px" fill="#1e1e1e" text-anchor="start" style="white-space: pre;" direction="ltr" dominant-baseline="text-before-edge">1% fee</text></g><g mask="url(#mask-Jd2NuLsZckth2t2QP4ykZ)" stroke-linecap="round"><g transform="translate(831.6211138535291 401.66015625) rotate(0 -201.650390625 0.515625)"><path d="M-0.18 1.2 C-67.48 1.47, -337.11 0.62, -404.24 0.58 M-1.73 0.78 C-68.63 1.31, -335.05 1.63, -402.01 1.88" stroke="#1e1e1e" stroke-width="2" fill="none"></path></g><g transform="translate(831.6211138535291 401.66015625) rotate(0 -201.650390625 0.515625)"><path d="M-378.54 -6.73 C-382.89 -6.02, -391.9 -1.57, -402.01 1.88 M-378.54 -6.73 C-385.67 -4.07, -392.45 -0.81, -402.01 1.88" stroke="#1e1e1e" stroke-width="2" fill="none"></path></g><g transform="translate(831.6211138535291 401.66015625) rotate(0 -201.650390625 0.515625)"><path d="M-378.5 10.38 C-382.71 6.52, -391.73 6.4, -402.01 1.88 M-378.5 10.38 C-385.5 7.97, -392.29 6.18, -402.01 1.88" stroke="#1e1e1e" stroke-width="2" fill="none"></path></g></g><mask id="mask-Jd2NuLsZckth2t2QP4ykZ"><rect x="0" y="0" fill="#fff" width="1334.921895103529" height="502.69140625"></rect><rect x="585.0527544785291" y="365.37578125000005" fill="#000" width="89.8359375" height="73.6" opacity="1"></rect></mask><g transform="translate(585.0527544785291 365.37578125000005) rotate(0 44.36246280781927 37.51526866231109)"><text x="44.91796875" y="0" font-family="Helvetica, Segoe UI Emoji" font-size="16px" fill="#1e1e1e" text-anchor="middle" style="white-space: pre;" direction="ltr" dominant-baseline="text-before-edge">send ARB </text><text x="44.91796875" y="18.4" font-family="Helvetica, Segoe UI Emoji" font-size="16px" fill="#1e1e1e" text-anchor="middle" style="white-space: pre;" direction="ltr" dominant-baseline="text-before-edge">calculated to</text><text x="44.91796875" y="36.8" font-family="Helvetica, Segoe UI Emoji" font-size="16px" fill="#1e1e1e" text-anchor="middle" style="white-space: pre;" direction="ltr" dominant-baseline="text-before-edge">sender from </text><text x="44.91796875" y="55.199999999999996" font-family="Helvetica, Segoe UI Emoji" font-size="16px" fill="#1e1e1e" text-anchor="middle" style="white-space: pre;" direction="ltr" dominant-baseline="text-before-edge">address A</text></g><g mask="url(#mask-x8d3lS0SMswWP8NtyKcAm)" stroke-linecap="round"><g transform="translate(430.1836138535291 482.2265625) rotate(0 202.205078125 -2.548828125)"><path d="M0.12 -0.97 C67.51 -1.57, 337.78 -3.23, 405.11 -3.91 M-1.27 1.14 C65.96 0.26, 337.12 -4.61, 404.52 -5.4" stroke="#1e1e1e" stroke-width="2" fill="none"></path></g><g transform="translate(430.1836138535291 482.2265625) rotate(0 202.205078125 -2.548828125)"><path d="M381.16 3.5 C388.08 1.39, 400.19 -3.55, 404.52 -5.4 M381.16 3.5 C387.9 0.94, 395.37 -3.1, 404.52 -5.4" stroke="#1e1e1e" stroke-width="2" fill="none"></path></g><g transform="translate(430.1836138535291 482.2265625) rotate(0 202.205078125 -2.548828125)"><path d="M380.9 -13.59 C387.88 -9.48, 400.08 -8.19, 404.52 -5.4 M380.9 -13.59 C387.77 -10.91, 395.32 -9.7, 404.52 -5.4" stroke="#1e1e1e" stroke-width="2" fill="none"></path></g></g><mask id="mask-x8d3lS0SMswWP8NtyKcAm"><rect x="0" y="0" fill="#fff" width="934.5937701035291" height="587.32421875"></rect><rect x="602.1465044785291" y="470.47773437499995" fill="#000" width="60.484375" height="18.4" opacity="1"></rect></mask><g transform="translate(602.1465044785291 470.47773437499995) rotate(0 29.95548483025283 9.616705443561159)"><text x="30.2421875" y="0" font-family="Helvetica, Segoe UI Emoji" font-size="16px" fill="#1e1e1e" text-anchor="middle" style="white-space: pre;" direction="ltr" dominant-baseline="text-before-edge">txn hash</text></g><g stroke-linecap="round" transform="translate(1289.433613853529 12.63671875) rotate(0 98.572265625 27.951171875)"><path d="M13.98 0 C59.33 -0.49, 101.98 -3.11, 183.17 0 M13.98 0 C70.23 0.42, 127.38 -0.04, 183.17 0 M183.17 0 C194.39 0.96, 196.77 3.18, 197.14 13.98 M183.17 0 C191.48 2.06, 196.4 4.7, 197.14 13.98 M197.14 13.98 C196.07 22.15, 197.78 26.19, 197.14 41.93 M197.14 13.98 C198.13 21.92, 196.92 29.69, 197.14 41.93 M197.14 41.93 C198.52 49.32, 191.75 56.82, 183.17 55.9 M197.14 41.93 C199.07 50.99, 191.79 57.03, 183.17 55.9 M183.17 55.9 C140.45 54.53, 94.59 54.3, 13.98 55.9 M183.17 55.9 C148.8 56.62, 116.25 57.54, 13.98 55.9 M13.98 55.9 C4.19 56.93, 0.99 53.24, 0 41.93 M13.98 55.9 C4.53 53.66, 0.51 51.26, 0 41.93 M0 41.93 C-1.99 32.14, -0.28 19.5, 0 13.98 M0 41.93 C0.36 36.08, 0.06 29.58, 0 13.98 M0 13.98 C0.45 5.11, 5.66 -0.11, 13.98 0 M0 13.98 C1.51 2.43, 3.01 -0.3, 13.98 0" stroke="#1e1e1e" stroke-width="2" fill="none"></path></g><g transform="translate(1353.759785728529 31.38789062500001) rotate(0 34.24609375 9.200000000000003)"><text x="34.24609375" y="0" font-family="Helvetica, Segoe UI Emoji" font-size="16px" fill="#1e1e1e" text-anchor="middle" style="white-space: pre;" direction="ltr" dominant-baseline="text-before-edge">Database</text></g><g mask="url(#mask-81rJeur-7x8XfEZcMUkFw)" stroke-linecap="round"><g transform="translate(833.5195513535291 476.40234375) rotate(0 279.216796875 -1.8046875)"><path d="M1.09 1.18 C29.56 0.65, 78.16 -2.48, 170.96 -2.75 C263.76 -3.01, 493.18 -0.59, 557.87 -0.4" stroke="#1e1e1e" stroke-width="2.5" fill="none" stroke-dasharray="1.5 8"></path></g><g transform="translate(833.5195513535291 476.40234375) rotate(0 279.216796875 -1.8046875)"><path d="M534.32 7.99 C543.62 4.99, 550.45 1.58, 557.87 -0.4" stroke="#1e1e1e" stroke-width="2.5" fill="none" stroke-dasharray="1.5 6"></path></g><g transform="translate(833.5195513535291 476.40234375) rotate(0 279.216796875 -1.8046875)"><path d="M534.43 -9.11 C543.77 -6.76, 550.57 -4.82, 557.87 -0.4" stroke="#1e1e1e" stroke-width="2.5" fill="none" stroke-dasharray="1.5 6"></path></g></g><mask id="mask-81rJeur-7x8XfEZcMUkFw"><rect x="0" y="0" fill="#fff" width="1491.953145103529" height="580.01171875"></rect><rect x="924.5351763535291" y="417.59296874999995" fill="#000" width="160.0859375" height="110.39999999999999" opacity="1"></rect></mask><g transform="translate(924.5351763535291 417.59296874999995) rotate(0 188.46326401941485 58.017792661644194)"><text x="80.04296875" y="0" font-family="Helvetica, Segoe UI Emoji" font-size="16px" fill="#1e1e1e" text-anchor="middle" style="white-space: pre;" direction="ltr" dominant-baseline="text-before-edge">From, amount USDC</text><text x="80.04296875" y="18.4" font-family="Helvetica, Segoe UI Emoji" font-size="16px" fill="#1e1e1e" text-anchor="middle" style="white-space: pre;" direction="ltr" dominant-baseline="text-before-edge">incoming txn hash,</text><text x="80.04296875" y="36.8" font-family="Helvetica, Segoe UI Emoji" font-size="16px" fill="#1e1e1e" text-anchor="middle" style="white-space: pre;" direction="ltr" dominant-baseline="text-before-edge">price of arb, amount of</text><text x="80.04296875" y="55.199999999999996" font-family="Helvetica, Segoe UI Emoji" font-size="16px" fill="#1e1e1e" text-anchor="middle" style="white-space: pre;" direction="ltr" dominant-baseline="text-before-edge">ARB calculated,</text><text x="80.04296875" y="73.6" font-family="Helvetica, Segoe UI Emoji" font-size="16px" fill="#1e1e1e" text-anchor="middle" style="white-space: pre;" direction="ltr" dominant-baseline="text-before-edge">send txn hash,</text><text x="80.04296875" y="92" font-family="Helvetica, Segoe UI Emoji" font-size="16px" fill="#1e1e1e" text-anchor="middle" style="white-space: pre;" direction="ltr" dominant-baseline="text-before-edge">time of txn</text></g><g mask="url(#mask-ygXRZ0XPsf9ncW855RU3b)" stroke-linecap="round"><g transform="translate(495.10268305114266 683.5707864015943) rotate(0 170.11885756281941 -2.195144307708347)"><path d="M0 0 C56.71 -0.73, 283.53 -3.66, 340.24 -4.39 M0 0 C56.71 -0.73, 283.53 -3.66, 340.24 -4.39" stroke="#1e1e1e" stroke-width="2" fill="none"></path></g><g transform="translate(495.10268305114266 683.5707864015943) rotate(0 170.11885756281941 -2.195144307708347)"><path d="M316.86 4.46 C325.75 1.09, 334.65 -2.27, 340.24 -4.39 M316.86 4.46 C325.44 1.21, 334.02 -2.04, 340.24 -4.39" stroke="#1e1e1e" stroke-width="2" fill="none"></path></g><g transform="translate(495.10268305114266 683.5707864015943) rotate(0 170.11885756281941 -2.195144307708347)"><path d="M316.64 -12.64 C325.62 -9.5, 334.59 -6.36, 340.24 -4.39 M316.64 -12.64 C325.3 -9.61, 333.96 -6.58, 340.24 -4.39" stroke="#1e1e1e" stroke-width="2" fill="none"></path></g></g><mask id="mask-ygXRZ0XPsf9ncW855RU3b"><rect x="0" y="0" fill="#fff" width="935.3403981767815" height="787.961075017011"></rect><rect x="604.2996656139622" y="672.175642093886" fill="#000" width="121.84375" height="18.4" opacity="1"></rect></mask><g transform="translate(604.2996656139621 672.1756420938859) rotate(0 60.92187499999994 9.200000000000045)"><text x="60.921875" y="0" font-family="Helvetica, Segoe UI Emoji" font-size="16px" fill="#1e1e1e" text-anchor="middle" style="white-space: pre;" direction="ltr" dominant-baseline="text-before-edge">incoming request</text></g><g mask="url(#mask-p47zZYA9twNb_jn1TCzgU)" stroke-linecap="round"><g transform="translate(834.9930182635612 680.040913089309) rotate(0 279.9290748822974 -2.350243303460047)"><path d="M0 0 C93.31 -0.78, 466.55 -3.92, 559.86 -4.7 M0 0 C93.31 -0.78, 466.55 -3.92, 559.86 -4.7" stroke="#1e1e1e" stroke-width="2" fill="none"></path></g><g transform="translate(834.9930182635612 680.040913089309) rotate(0 279.9290748822974 -2.350243303460047)"><path d="M536.44 4.05 C543.76 1.31, 551.09 -1.43, 559.86 -4.7 M536.44 4.05 C541.57 2.13, 546.7 0.22, 559.86 -4.7" stroke="#1e1e1e" stroke-width="2" fill="none"></path></g><g transform="translate(834.9930182635612 680.040913089309) rotate(0 279.9290748822974 -2.350243303460047)"><path d="M536.29 -13.05 C543.67 -10.44, 551.04 -7.83, 559.86 -4.7 M536.29 -13.05 C541.45 -11.22, 546.61 -9.4, 559.86 -4.7" stroke="#1e1e1e" stroke-width="2" fill="none"></path></g></g><mask id="mask-p47zZYA9twNb_jn1TCzgU"><rect x="0" y="0" fill="#fff" width="1494.851168028156" height="784.7413996962291"></rect><rect x="1035.3283431458585" y="668.4906697858489" fill="#000" width="159.1875" height="18.4" opacity="1"></rect></mask><g transform="translate(1035.3283431458585 668.4906697858489) rotate(0 79.59375000000011 9.200000000000045)"><text x="79.59375" y="0" font-family="Helvetica, Segoe UI Emoji" font-size="16px" fill="#1e1e1e" text-anchor="middle" style="white-space: pre;" direction="ltr" dominant-baseline="text-before-edge">username &amp; password</text></g><g mask="url(#mask-_Zq3vDfOIuQzf_4kIDiVW)" stroke-linecap="round"><g transform="translate(1403.4412996231183 675.9852485011285) rotate(0 35.64345574877518 31.215333681604307)"><path d="M0 0 C9.63 0.61, 46.01 -4.07, 57.76 3.65 C69.5 11.38, 80.62 36.41, 70.47 46.35 C60.32 56.29, 9.11 60.46, -3.16 63.29 M0 0 C9.63 0.61, 46.01 -4.07, 57.76 3.65 C69.5 11.38, 80.62 36.41, 70.47 46.35 C60.32 56.29, 9.11 60.46, -3.16 63.29" stroke="#1e1e1e" stroke-width="2" fill="none"></path></g><g transform="translate(1403.4412996231183 675.9852485011285) rotate(0 35.64345574877518 31.215333681604307)"><path d="M18.73 51.22 C12.16 54.84, 5.59 58.46, -3.16 63.29 M18.73 51.22 C11.8 55.04, 4.88 58.86, -3.16 63.29" stroke="#1e1e1e" stroke-width="2" fill="none"></path></g><g transform="translate(1403.4412996231183 675.9852485011285) rotate(0 35.64345574877518 31.215333681604307)"><path d="M21.37 68.12 C14 66.67, 6.64 65.22, -3.16 63.29 M21.37 68.12 C13.6 66.59, 5.84 65.06, -3.16 63.29" stroke="#1e1e1e" stroke-width="2" fill="none"></path></g></g><mask id="mask-_Zq3vDfOIuQzf_4kIDiVW"><rect x="0" y="0" fill="#fff" width="1577.0762475334423" height="839.2728164982321"></rect><rect x="1447.9253250817117" y="681.0137555674481" fill="#000" width="55.1484375" height="36.8" opacity="1"></rect></mask><g transform="translate(1447.9253250817117 681.013755567448) rotate(0 -8.840569709818169 26.186826615284758)"><text x="27.57421875" y="0" font-family="Helvetica, Segoe UI Emoji" font-size="16px" fill="#1e1e1e" text-anchor="middle" style="white-space: pre;" direction="ltr" dominant-baseline="text-before-edge">validate</text><text x="27.57421875" y="18.4" font-family="Helvetica, Segoe UI Emoji" font-size="16px" fill="#1e1e1e" text-anchor="middle" style="white-space: pre;" direction="ltr" dominant-baseline="text-before-edge">creds</text></g><g stroke-linecap="round" transform="translate(366.29673126553985 641.6396987107754) rotate(0 62.11807971858428 178.08219393331586)"><path d="M31.06 0 C50.94 0, 70.82 0, 93.18 0 M31.06 0 C51.75 0, 72.44 0, 93.18 0 M93.18 0 C113.88 0, 124.24 10.35, 124.24 31.06 M93.18 0 C113.88 0, 124.24 10.35, 124.24 31.06 M124.24 31.06 C124.24 135.65, 124.24 240.24, 124.24 325.11 M124.24 31.06 C124.24 100.71, 124.24 170.37, 124.24 325.11 M124.24 325.11 C124.24 345.81, 113.88 356.16, 93.18 356.16 M124.24 325.11 C124.24 345.81, 113.88 356.16, 93.18 356.16 M93.18 356.16 C74.11 356.16, 55.04 356.16, 31.06 356.16 M93.18 356.16 C69.56 356.16, 45.94 356.16, 31.06 356.16 M31.06 356.16 C10.35 356.16, 0 345.81, 0 325.11 M31.06 356.16 C10.35 356.16, 0 345.81, 0 325.11 M0 325.11 C0 237.76, 0 150.42, 0 31.06 M0 325.11 C0 215.14, 0 105.17, 0 31.06 M0 31.06 C0 10.35, 10.35 0, 31.06 0 M0 31.06 C0 10.35, 10.35 0, 31.06 0" stroke="#1e1e1e" stroke-width="2" fill="none"></path></g><g transform="translate(405.7390297341242 810.5218926440913) rotate(0 22.67578125 9.199999999999989)"><text x="22.67578125" y="0" font-family="Helvetica, Segoe UI Emoji" font-size="16px" fill="#1e1e1e" text-anchor="middle" style="white-space: pre;" direction="ltr" dominant-baseline="text-before-edge">Admin</text></g><g mask="url(#mask-9M4G6vg0JnV3dhtOaCuMn)" stroke-linecap="round"><g transform="translate(1397.2941627757173 741.9543021464751) rotate(0 -280.15440981072106 2.9879411508994167)"><path d="M0 0 C-93.38 1, -466.92 4.98, -560.31 5.98 M0 0 C-93.38 1, -466.92 4.98, -560.31 5.98" stroke="#1e1e1e" stroke-width="2" fill="none"></path></g><g transform="translate(1397.2941627757173 741.9543021464751) rotate(0 -280.15440981072106 2.9879411508994167)"><path d="M-536.91 -2.82 C-543.44 -0.37, -549.98 2.09, -560.31 5.98 M-536.91 -2.82 C-543.53 -0.33, -550.16 2.16, -560.31 5.98" stroke="#1e1e1e" stroke-width="2" fill="none"></path></g><g transform="translate(1397.2941627757173 741.9543021464751) rotate(0 -280.15440981072106 2.9879411508994167)"><path d="M-536.73 14.28 C-543.31 11.96, -549.9 9.64, -560.31 5.98 M-536.73 14.28 C-543.4 11.93, -550.08 9.58, -560.31 5.98" stroke="#1e1e1e" stroke-width="2" fill="none"></path></g></g><mask id="mask-9M4G6vg0JnV3dhtOaCuMn"><rect x="0" y="0" fill="#fff" width="2057.6029823971594" height="847.930184448274"></rect><rect x="1073.5577217149962" y="735.7422432973744" fill="#000" width="87.1640625" height="18.4" opacity="1"></rect></mask><g transform="translate(1073.5577217149962 735.7422432973744) rotate(0 43.58203125 9.200000000000102)"><text x="43.58203125" y="0" font-family="Helvetica, Segoe UI Emoji" font-size="16px" fill="#1e1e1e" text-anchor="middle" style="white-space: pre;" direction="ltr" dominant-baseline="text-before-edge">valid or not?</text></g><g mask="url(#mask-_1SgkRERS2-30Uwjc__1Y)" stroke-linecap="round"><g transform="translate(836.0885101391484 750.3007078952921) rotate(0 -171.68268196608045 6.55497783843299)"><path d="M0 0 C-57.23 2.18, -286.14 10.92, -343.37 13.11 M0 0 C-57.23 2.18, -286.14 10.92, -343.37 13.11" stroke="#1e1e1e" stroke-width="2" fill="none"></path></g><g transform="translate(836.0885101391484 750.3007078952921) rotate(0 -171.68268196608045 6.55497783843299)"><path d="M-320.22 3.67 C-327.84 6.78, -335.47 9.89, -343.37 13.11 M-320.22 3.67 C-329.31 7.38, -338.4 11.09, -343.37 13.11" stroke="#1e1e1e" stroke-width="2" fill="none"></path></g><g transform="translate(836.0885101391484 750.3007078952921) rotate(0 -171.68268196608045 6.55497783843299)"><path d="M-319.56 20.76 C-327.4 18.24, -335.25 15.72, -343.37 13.11 M-319.56 20.76 C-328.91 17.75, -338.26 14.75, -343.37 13.11" stroke="#1e1e1e" stroke-width="2" fill="none"></path></g></g><mask id="mask-_1SgkRERS2-30Uwjc__1Y"><rect x="0" y="0" fill="#fff" width="1279.4538740713092" height="863.4106635721581"></rect><rect x="592.8159844230679" y="738.455685733725" fill="#000" width="143.1796875" height="36.8" opacity="1"></rect></mask><g transform="translate(592.8159844230679 738.4556857337251) rotate(0 71.58984375000006 18.400000000000034)"><text x="71.58984375" y="0" font-family="Helvetica, Segoe UI Emoji" font-size="16px" fill="#1e1e1e" text-anchor="middle" style="white-space: pre;" direction="ltr" dominant-baseline="text-before-edge">if valid, send access</text><text x="71.58984375" y="18.4" font-family="Helvetica, Segoe UI Emoji" font-size="16px" fill="#1e1e1e" text-anchor="middle" style="white-space: pre;" direction="ltr" dominant-baseline="text-before-edge">token</text></g><g mask="url(#mask-uoYTlzjYCHHKdV-X1ljHC)" stroke-linecap="round"><g transform="translate(500.72704286460043 831.5523221243302) rotate(0 167.9624022978038 -3.8691735900315507)"><path d="M0 0 C55.99 -1.29, 279.94 -6.45, 335.92 -7.74 M0 0 C55.99 -1.29, 279.94 -6.45, 335.92 -7.74" stroke="#1e1e1e" stroke-width="2" fill="none"></path></g><g transform="translate(500.72704286460043 831.5523221243302) rotate(0 167.9624022978038 -3.8691735900315507)"><path d="M312.64 1.35 C320.65 -1.78, 328.67 -4.91, 335.92 -7.74 M312.64 1.35 C319.88 -1.48, 327.13 -4.3, 335.92 -7.74" stroke="#1e1e1e" stroke-width="2" fill="none"></path></g><g transform="translate(500.72704286460043 831.5523221243302) rotate(0 167.9624022978038 -3.8691735900315507)"><path d="M312.24 -15.75 C320.4 -12.99, 328.55 -10.23, 335.92 -7.74 M312.24 -15.75 C319.61 -13.25, 326.98 -10.76, 335.92 -7.74" stroke="#1e1e1e" stroke-width="2" fill="none"></path></g></g><mask id="mask-uoYTlzjYCHHKdV-X1ljHC"><rect x="0" y="0" fill="#fff" width="936.651847460208" height="939.2906693043933"></rect><rect x="621.9980389124041" y="809.2831485342986" fill="#000" width="93.3828125" height="36.8" opacity="1"></rect></mask><g transform="translate(621.9980389124042 809.2831485342987) rotate(0 46.69140625 18.399999999999977)"><text x="46.69140625" y="0" font-family="Helvetica, Segoe UI Emoji" font-size="16px" fill="#1e1e1e" text-anchor="middle" style="white-space: pre;" direction="ltr" dominant-baseline="text-before-edge">request with</text><text x="46.69140625" y="18.4" font-family="Helvetica, Segoe UI Emoji" font-size="16px" fill="#1e1e1e" text-anchor="middle" style="white-space: pre;" direction="ltr" dominant-baseline="text-before-edge">access token</text></g><g mask="url(#mask-qCNy4k7MU2FaPL4i9S0c6)" stroke-linecap="round"><g transform="translate(836.9042225800426 824.6206739880242) rotate(0 63.77429144249902 33.849812947820624)"><path d="M0 0 C16.14 -0.26, 75.57 -5.67, 96.83 -1.56 C118.09 2.54, 122.61 15.66, 127.55 24.63 C132.49 33.59, 130.04 45.02, 126.46 52.23 C122.87 59.43, 116.46 65.26, 106.03 67.86 C95.61 70.47, 81.42 67.63, 63.93 67.86 C46.44 68.1, 11.56 69.03, 1.09 69.26 M0 0 C16.14 -0.26, 75.57 -5.67, 96.83 -1.56 C118.09 2.54, 122.61 15.66, 127.55 24.63 C132.49 33.59, 130.04 45.02, 126.46 52.23 C122.87 59.43, 116.46 65.26, 106.03 67.86 C95.61 70.47, 81.42 67.63, 63.93 67.86 C46.44 68.1, 11.56 69.03, 1.09 69.26" stroke="#1e1e1e" stroke-width="2" fill="none"></path></g><g transform="translate(836.9042225800426 824.6206739880242) rotate(0 63.77429144249902 33.849812947820624)"><path d="M24.36 60.14 C15.48 63.63, 6.6 67.11, 1.09 69.26 M24.36 60.14 C18.6 62.4, 12.83 64.66, 1.09 69.26" stroke="#1e1e1e" stroke-width="2" fill="none"></path></g><g transform="translate(836.9042225800426 824.6206739880242) rotate(0 63.77429144249902 33.849812947820624)"><path d="M24.78 77.24 C15.74 74.2, 6.69 71.15, 1.09 69.26 M24.78 77.24 C18.91 75.26, 13.04 73.29, 1.09 69.26" stroke="#1e1e1e" stroke-width="2" fill="none"></path></g></g><mask id="mask-qCNy4k7MU2FaPL4i9S0c6"><rect x="0" y="0" fill="#fff" width="1064.4528054650407" height="995.4479486901878"></rect><rect x="892.7996844114696" y="867.6488036980886" fill="#000" width="141.125" height="18.4" opacity="1"></rect></mask><g transform="translate(892.7996844114696 867.6488036980886) rotate(0 9.269889022845518 -9.944917134318757)"><text x="70.5625" y="0" font-family="Helvetica, Segoe UI Emoji" font-size="16px" fill="#1e1e1e" text-anchor="middle" style="white-space: pre;" direction="ltr" dominant-baseline="text-before-edge">Valid access token?</text></g><g mask="url(#mask-L5PeNI1Wcq9CxA19qE8BW)" stroke-linecap="round"><g transform="translate(839.9913110994485 920.6268735922615) rotate(0 279.85696770520167 -3.7067595725712863)"><path d="M0 0 C93.29 -1.24, 466.43 -6.18, 559.71 -7.41 M0 0 C93.29 -1.24, 466.43 -6.18, 559.71 -7.41" stroke="#1e1e1e" stroke-width="2" fill="none"></path></g><g transform="translate(839.9913110994485 920.6268735922615) rotate(0 279.85696770520167 -3.7067595725712863)"><path d="M536.34 1.45 C544.75 -1.74, 553.17 -4.93, 559.71 -7.41 M536.34 1.45 C544.06 -1.48, 551.79 -4.41, 559.71 -7.41" stroke="#1e1e1e" stroke-width="2" fill="none"></path></g><g transform="translate(839.9913110994485 920.6268735922615) rotate(0 279.85696770520167 -3.7067595725712863)"><path d="M536.11 -15.65 C544.61 -12.69, 553.1 -9.72, 559.71 -7.41 M536.11 -15.65 C543.91 -12.93, 551.71 -10.21, 559.71 -7.41" stroke="#1e1e1e" stroke-width="2" fill="none"></path></g></g><mask id="mask-L5PeNI1Wcq9CxA19qE8BW"><rect x="0" y="0" fill="#fff" width="1499.7052465098518" height="1028.040392737404"></rect><rect x="1054.4771850546504" y="907.7201140196901" fill="#000" width="130.7421875" height="18.4" opacity="1"></rect></mask><g transform="translate(1054.4771850546501 907.7201140196901) rotate(0 65.37109375 9.20000000000016)"><text x="65.37109375" y="0" font-family="Helvetica, Segoe UI Emoji" font-size="16px" fill="#1e1e1e" text-anchor="middle" style="white-space: pre;" direction="ltr" dominant-baseline="text-before-edge">grant access to db</text></g><g mask="url(#mask-Sl3Jtqbt7pAF3LJ6Ynksp)" stroke-linecap="round"><g transform="translate(1398.682225934808 955.887283192015) rotate(0 -447.99287789789184 5.518452397098372)"><path d="M0 0 C-117.88 0.89, -557.96 3.5, -707.29 5.34 C-856.62 7.18, -864.54 10.09, -895.99 11.04 M0 0 C-117.88 0.89, -557.96 3.5, -707.29 5.34 C-856.62 7.18, -864.54 10.09, -895.99 11.04" stroke="#1e1e1e" stroke-width="2" fill="none"></path></g><g transform="translate(1398.682225934808 955.887283192015) rotate(0 -447.99287789789184 5.518452397098372)"><path d="M-872.94 1.34 C-880.7 4.6, -888.46 7.87, -895.99 11.04 M-872.94 1.34 C-880.17 4.38, -887.4 7.42, -895.99 11.04" stroke="#1e1e1e" stroke-width="2" fill="none"></path></g><g transform="translate(1398.682225934808 955.887283192015) rotate(0 -447.99287789789184 5.518452397098372)"><path d="M-872.1 18.42 C-880.14 15.93, -888.18 13.45, -895.99 11.04 M-872.1 18.42 C-879.59 16.1, -887.09 13.79, -895.99 11.04" stroke="#1e1e1e" stroke-width="2" fill="none"></path></g></g><mask id="mask-Sl3Jtqbt7pAF3LJ6Ynksp"><rect x="0" y="0" fill="#fff" width="2394.6679817305917" height="1066.9241879862118"></rect><rect x="638.0169392011005" y="952.0232142970901" fill="#000" width="106.75" height="18.4" opacity="1"></rect></mask><g transform="translate(638.0169392011003 952.0232142970901) rotate(0 312.6724088358159 9.382521292023284)"><text x="53.375" y="0" font-family="Helvetica, Segoe UI Emoji" font-size="16px" fill="#1e1e1e" text-anchor="middle" style="white-space: pre;" direction="ltr" dominant-baseline="text-before-edge">requested data</text></g></svg>